G04 #@! TF.GenerationSoftware,KiCad,Pcbnew,7.0.9-7.0.9~ubuntu20.04.1*
G04 #@! TF.CreationDate,2023-12-17T17:20:07+01:00*
G04 #@! TF.ProjectId,swr,7377722e-6b69-4636-9164-5f7063625858,1.0*
G04 #@! TF.SameCoordinates,Original*
G04 #@! TF.FileFunction,Legend,Top*
G04 #@! TF.FilePolarity,Positive*
%FSLAX46Y46*%
G04 Gerber Fmt 4.6, Leading zero omitted, Abs format (unit mm)*
G04 Created by KiCad (PCBNEW 7.0.9-7.0.9~ubuntu20.04.1) date 2023-12-17 17:20:07*
%MOMM*%
%LPD*%
G01*
G04 APERTURE LIST*
G04 Aperture macros list*
%AMRoundRect*
0 Rectangle with rounded corners*
0 $1 Rounding radius*
0 $2 $3 $4 $5 $6 $7 $8 $9 X,Y pos of 4 corners*
0 Add a 4 corners polygon primitive as box body*
4,1,4,$2,$3,$4,$5,$6,$7,$8,$9,$2,$3,0*
0 Add four circle primitives for the rounded corners*
1,1,$1+$1,$2,$3*
1,1,$1+$1,$4,$5*
1,1,$1+$1,$6,$7*
1,1,$1+$1,$8,$9*
0 Add four rect primitives between the rounded corners*
20,1,$1+$1,$2,$3,$4,$5,0*
20,1,$1+$1,$4,$5,$6,$7,0*
20,1,$1+$1,$6,$7,$8,$9,0*
20,1,$1+$1,$8,$9,$2,$3,0*%
G04 Aperture macros list end*
%ADD10C,0.250000*%
%ADD11C,0.150000*%
%ADD12C,1.200000*%
%ADD13C,0.300000*%
%ADD14C,0.120000*%
%ADD15O,5.000000X9.000000*%
%ADD16C,2.200000*%
%ADD17R,8.000000X5.000000*%
%ADD18R,5.000000X2.000000*%
%ADD19RoundRect,0.250000X0.475000X-0.337500X0.475000X0.337500X-0.475000X0.337500X-0.475000X-0.337500X0*%
%ADD20R,6.000000X2.500000*%
%ADD21RoundRect,0.250000X-0.450000X0.350000X-0.450000X-0.350000X0.450000X-0.350000X0.450000X0.350000X0*%
%ADD22C,2.400000*%
%ADD23O,2.400000X2.400000*%
%ADD24RoundRect,0.250000X-0.337500X-0.475000X0.337500X-0.475000X0.337500X0.475000X-0.337500X0.475000X0*%
%ADD25RoundRect,0.250000X0.450000X-0.350000X0.450000X0.350000X-0.450000X0.350000X-0.450000X-0.350000X0*%
%ADD26C,5.600000*%
%ADD27R,0.900000X1.200000*%
%ADD28R,1.700000X1.700000*%
%ADD29O,1.700000X1.700000*%
G04 APERTURE END LIST*
D10*
X102006856Y-91329000D02*
X102235428Y-91405190D01*
X102235428Y-91405190D02*
X102616380Y-91405190D01*
X102616380Y-91405190D02*
X102768761Y-91329000D01*
X102768761Y-91329000D02*
X102844952Y-91252809D01*
X102844952Y-91252809D02*
X102921142Y-91100428D01*
X102921142Y-91100428D02*
X102921142Y-90948047D01*
X102921142Y-90948047D02*
X102844952Y-90795666D01*
X102844952Y-90795666D02*
X102768761Y-90719476D01*
X102768761Y-90719476D02*
X102616380Y-90643285D01*
X102616380Y-90643285D02*
X102311618Y-90567095D01*
X102311618Y-90567095D02*
X102159237Y-90490904D01*
X102159237Y-90490904D02*
X102083047Y-90414714D01*
X102083047Y-90414714D02*
X102006856Y-90262333D01*
X102006856Y-90262333D02*
X102006856Y-90109952D01*
X102006856Y-90109952D02*
X102083047Y-89957571D01*
X102083047Y-89957571D02*
X102159237Y-89881380D01*
X102159237Y-89881380D02*
X102311618Y-89805190D01*
X102311618Y-89805190D02*
X102692571Y-89805190D01*
X102692571Y-89805190D02*
X102921142Y-89881380D01*
X104368762Y-89805190D02*
X103606857Y-89805190D01*
X103606857Y-89805190D02*
X103530666Y-90567095D01*
X103530666Y-90567095D02*
X103606857Y-90490904D01*
X103606857Y-90490904D02*
X103759238Y-90414714D01*
X103759238Y-90414714D02*
X104140190Y-90414714D01*
X104140190Y-90414714D02*
X104292571Y-90490904D01*
X104292571Y-90490904D02*
X104368762Y-90567095D01*
X104368762Y-90567095D02*
X104444952Y-90719476D01*
X104444952Y-90719476D02*
X104444952Y-91100428D01*
X104444952Y-91100428D02*
X104368762Y-91252809D01*
X104368762Y-91252809D02*
X104292571Y-91329000D01*
X104292571Y-91329000D02*
X104140190Y-91405190D01*
X104140190Y-91405190D02*
X103759238Y-91405190D01*
X103759238Y-91405190D02*
X103606857Y-91329000D01*
X103606857Y-91329000D02*
X103530666Y-91252809D01*
X105206857Y-91405190D02*
X105511619Y-91405190D01*
X105511619Y-91405190D02*
X105664000Y-91329000D01*
X105664000Y-91329000D02*
X105740191Y-91252809D01*
X105740191Y-91252809D02*
X105892572Y-91024238D01*
X105892572Y-91024238D02*
X105968762Y-90719476D01*
X105968762Y-90719476D02*
X105968762Y-90109952D01*
X105968762Y-90109952D02*
X105892572Y-89957571D01*
X105892572Y-89957571D02*
X105816381Y-89881380D01*
X105816381Y-89881380D02*
X105664000Y-89805190D01*
X105664000Y-89805190D02*
X105359238Y-89805190D01*
X105359238Y-89805190D02*
X105206857Y-89881380D01*
X105206857Y-89881380D02*
X105130667Y-89957571D01*
X105130667Y-89957571D02*
X105054476Y-90109952D01*
X105054476Y-90109952D02*
X105054476Y-90490904D01*
X105054476Y-90490904D02*
X105130667Y-90643285D01*
X105130667Y-90643285D02*
X105206857Y-90719476D01*
X105206857Y-90719476D02*
X105359238Y-90795666D01*
X105359238Y-90795666D02*
X105664000Y-90795666D01*
X105664000Y-90795666D02*
X105816381Y-90719476D01*
X105816381Y-90719476D02*
X105892572Y-90643285D01*
X105892572Y-90643285D02*
X105968762Y-90490904D01*
X106654477Y-91405190D02*
X106654477Y-89805190D01*
X106654477Y-89805190D02*
X107187810Y-90948047D01*
X107187810Y-90948047D02*
X107721144Y-89805190D01*
X107721144Y-89805190D02*
X107721144Y-91405190D01*
X108330667Y-89805190D02*
X109397334Y-89805190D01*
X109397334Y-89805190D02*
X108330667Y-91405190D01*
X108330667Y-91405190D02*
X109397334Y-91405190D01*
D11*
X142748095Y-63589819D02*
X143319523Y-63589819D01*
X143033809Y-64589819D02*
X143033809Y-63589819D01*
X144176666Y-64589819D02*
X143605238Y-64589819D01*
X143890952Y-64589819D02*
X143890952Y-63589819D01*
X143890952Y-63589819D02*
X143795714Y-63732676D01*
X143795714Y-63732676D02*
X143700476Y-63827914D01*
X143700476Y-63827914D02*
X143605238Y-63875533D01*
X98893333Y-66399580D02*
X98845714Y-66447200D01*
X98845714Y-66447200D02*
X98702857Y-66494819D01*
X98702857Y-66494819D02*
X98607619Y-66494819D01*
X98607619Y-66494819D02*
X98464762Y-66447200D01*
X98464762Y-66447200D02*
X98369524Y-66351961D01*
X98369524Y-66351961D02*
X98321905Y-66256723D01*
X98321905Y-66256723D02*
X98274286Y-66066247D01*
X98274286Y-66066247D02*
X98274286Y-65923390D01*
X98274286Y-65923390D02*
X98321905Y-65732914D01*
X98321905Y-65732914D02*
X98369524Y-65637676D01*
X98369524Y-65637676D02*
X98464762Y-65542438D01*
X98464762Y-65542438D02*
X98607619Y-65494819D01*
X98607619Y-65494819D02*
X98702857Y-65494819D01*
X98702857Y-65494819D02*
X98845714Y-65542438D01*
X98845714Y-65542438D02*
X98893333Y-65590057D01*
X99750476Y-65828152D02*
X99750476Y-66494819D01*
X99512381Y-65447200D02*
X99274286Y-66161485D01*
X99274286Y-66161485D02*
X99893333Y-66161485D01*
X111633095Y-85179819D02*
X112204523Y-85179819D01*
X111918809Y-86179819D02*
X111918809Y-85179819D01*
X112490238Y-85275057D02*
X112537857Y-85227438D01*
X112537857Y-85227438D02*
X112633095Y-85179819D01*
X112633095Y-85179819D02*
X112871190Y-85179819D01*
X112871190Y-85179819D02*
X112966428Y-85227438D01*
X112966428Y-85227438D02*
X113014047Y-85275057D01*
X113014047Y-85275057D02*
X113061666Y-85370295D01*
X113061666Y-85370295D02*
X113061666Y-85465533D01*
X113061666Y-85465533D02*
X113014047Y-85608390D01*
X113014047Y-85608390D02*
X112442619Y-86179819D01*
X112442619Y-86179819D02*
X113061666Y-86179819D01*
X102068333Y-66494819D02*
X101735000Y-66018628D01*
X101496905Y-66494819D02*
X101496905Y-65494819D01*
X101496905Y-65494819D02*
X101877857Y-65494819D01*
X101877857Y-65494819D02*
X101973095Y-65542438D01*
X101973095Y-65542438D02*
X102020714Y-65590057D01*
X102020714Y-65590057D02*
X102068333Y-65685295D01*
X102068333Y-65685295D02*
X102068333Y-65828152D01*
X102068333Y-65828152D02*
X102020714Y-65923390D01*
X102020714Y-65923390D02*
X101973095Y-65971009D01*
X101973095Y-65971009D02*
X101877857Y-66018628D01*
X101877857Y-66018628D02*
X101496905Y-66018628D01*
X102925476Y-65494819D02*
X102735000Y-65494819D01*
X102735000Y-65494819D02*
X102639762Y-65542438D01*
X102639762Y-65542438D02*
X102592143Y-65590057D01*
X102592143Y-65590057D02*
X102496905Y-65732914D01*
X102496905Y-65732914D02*
X102449286Y-65923390D01*
X102449286Y-65923390D02*
X102449286Y-66304342D01*
X102449286Y-66304342D02*
X102496905Y-66399580D01*
X102496905Y-66399580D02*
X102544524Y-66447200D01*
X102544524Y-66447200D02*
X102639762Y-66494819D01*
X102639762Y-66494819D02*
X102830238Y-66494819D01*
X102830238Y-66494819D02*
X102925476Y-66447200D01*
X102925476Y-66447200D02*
X102973095Y-66399580D01*
X102973095Y-66399580D02*
X103020714Y-66304342D01*
X103020714Y-66304342D02*
X103020714Y-66066247D01*
X103020714Y-66066247D02*
X102973095Y-65971009D01*
X102973095Y-65971009D02*
X102925476Y-65923390D01*
X102925476Y-65923390D02*
X102830238Y-65875771D01*
X102830238Y-65875771D02*
X102639762Y-65875771D01*
X102639762Y-65875771D02*
X102544524Y-65923390D01*
X102544524Y-65923390D02*
X102496905Y-65971009D01*
X102496905Y-65971009D02*
X102449286Y-66066247D01*
X143724333Y-97583819D02*
X143391000Y-97107628D01*
X143152905Y-97583819D02*
X143152905Y-96583819D01*
X143152905Y-96583819D02*
X143533857Y-96583819D01*
X143533857Y-96583819D02*
X143629095Y-96631438D01*
X143629095Y-96631438D02*
X143676714Y-96679057D01*
X143676714Y-96679057D02*
X143724333Y-96774295D01*
X143724333Y-96774295D02*
X143724333Y-96917152D01*
X143724333Y-96917152D02*
X143676714Y-97012390D01*
X143676714Y-97012390D02*
X143629095Y-97060009D01*
X143629095Y-97060009D02*
X143533857Y-97107628D01*
X143533857Y-97107628D02*
X143152905Y-97107628D01*
X144105286Y-96679057D02*
X144152905Y-96631438D01*
X144152905Y-96631438D02*
X144248143Y-96583819D01*
X144248143Y-96583819D02*
X144486238Y-96583819D01*
X144486238Y-96583819D02*
X144581476Y-96631438D01*
X144581476Y-96631438D02*
X144629095Y-96679057D01*
X144629095Y-96679057D02*
X144676714Y-96774295D01*
X144676714Y-96774295D02*
X144676714Y-96869533D01*
X144676714Y-96869533D02*
X144629095Y-97012390D01*
X144629095Y-97012390D02*
X144057667Y-97583819D01*
X144057667Y-97583819D02*
X144676714Y-97583819D01*
X105010833Y-53064580D02*
X104963214Y-53112200D01*
X104963214Y-53112200D02*
X104820357Y-53159819D01*
X104820357Y-53159819D02*
X104725119Y-53159819D01*
X104725119Y-53159819D02*
X104582262Y-53112200D01*
X104582262Y-53112200D02*
X104487024Y-53016961D01*
X104487024Y-53016961D02*
X104439405Y-52921723D01*
X104439405Y-52921723D02*
X104391786Y-52731247D01*
X104391786Y-52731247D02*
X104391786Y-52588390D01*
X104391786Y-52588390D02*
X104439405Y-52397914D01*
X104439405Y-52397914D02*
X104487024Y-52302676D01*
X104487024Y-52302676D02*
X104582262Y-52207438D01*
X104582262Y-52207438D02*
X104725119Y-52159819D01*
X104725119Y-52159819D02*
X104820357Y-52159819D01*
X104820357Y-52159819D02*
X104963214Y-52207438D01*
X104963214Y-52207438D02*
X105010833Y-52255057D01*
X105344167Y-52159819D02*
X105963214Y-52159819D01*
X105963214Y-52159819D02*
X105629881Y-52540771D01*
X105629881Y-52540771D02*
X105772738Y-52540771D01*
X105772738Y-52540771D02*
X105867976Y-52588390D01*
X105867976Y-52588390D02*
X105915595Y-52636009D01*
X105915595Y-52636009D02*
X105963214Y-52731247D01*
X105963214Y-52731247D02*
X105963214Y-52969342D01*
X105963214Y-52969342D02*
X105915595Y-53064580D01*
X105915595Y-53064580D02*
X105867976Y-53112200D01*
X105867976Y-53112200D02*
X105772738Y-53159819D01*
X105772738Y-53159819D02*
X105487024Y-53159819D01*
X105487024Y-53159819D02*
X105391786Y-53112200D01*
X105391786Y-53112200D02*
X105344167Y-53064580D01*
X114133333Y-55699819D02*
X113800000Y-55223628D01*
X113561905Y-55699819D02*
X113561905Y-54699819D01*
X113561905Y-54699819D02*
X113942857Y-54699819D01*
X113942857Y-54699819D02*
X114038095Y-54747438D01*
X114038095Y-54747438D02*
X114085714Y-54795057D01*
X114085714Y-54795057D02*
X114133333Y-54890295D01*
X114133333Y-54890295D02*
X114133333Y-55033152D01*
X114133333Y-55033152D02*
X114085714Y-55128390D01*
X114085714Y-55128390D02*
X114038095Y-55176009D01*
X114038095Y-55176009D02*
X113942857Y-55223628D01*
X113942857Y-55223628D02*
X113561905Y-55223628D01*
X115038095Y-54699819D02*
X114561905Y-54699819D01*
X114561905Y-54699819D02*
X114514286Y-55176009D01*
X114514286Y-55176009D02*
X114561905Y-55128390D01*
X114561905Y-55128390D02*
X114657143Y-55080771D01*
X114657143Y-55080771D02*
X114895238Y-55080771D01*
X114895238Y-55080771D02*
X114990476Y-55128390D01*
X114990476Y-55128390D02*
X115038095Y-55176009D01*
X115038095Y-55176009D02*
X115085714Y-55271247D01*
X115085714Y-55271247D02*
X115085714Y-55509342D01*
X115085714Y-55509342D02*
X115038095Y-55604580D01*
X115038095Y-55604580D02*
X114990476Y-55652200D01*
X114990476Y-55652200D02*
X114895238Y-55699819D01*
X114895238Y-55699819D02*
X114657143Y-55699819D01*
X114657143Y-55699819D02*
X114561905Y-55652200D01*
X114561905Y-55652200D02*
X114514286Y-55604580D01*
X143597333Y-59128819D02*
X143264000Y-58652628D01*
X143025905Y-59128819D02*
X143025905Y-58128819D01*
X143025905Y-58128819D02*
X143406857Y-58128819D01*
X143406857Y-58128819D02*
X143502095Y-58176438D01*
X143502095Y-58176438D02*
X143549714Y-58224057D01*
X143549714Y-58224057D02*
X143597333Y-58319295D01*
X143597333Y-58319295D02*
X143597333Y-58462152D01*
X143597333Y-58462152D02*
X143549714Y-58557390D01*
X143549714Y-58557390D02*
X143502095Y-58605009D01*
X143502095Y-58605009D02*
X143406857Y-58652628D01*
X143406857Y-58652628D02*
X143025905Y-58652628D01*
X144454476Y-58462152D02*
X144454476Y-59128819D01*
X144216381Y-58081200D02*
X143978286Y-58795485D01*
X143978286Y-58795485D02*
X144597333Y-58795485D01*
X143343333Y-53540819D02*
X143010000Y-53064628D01*
X142771905Y-53540819D02*
X142771905Y-52540819D01*
X142771905Y-52540819D02*
X143152857Y-52540819D01*
X143152857Y-52540819D02*
X143248095Y-52588438D01*
X143248095Y-52588438D02*
X143295714Y-52636057D01*
X143295714Y-52636057D02*
X143343333Y-52731295D01*
X143343333Y-52731295D02*
X143343333Y-52874152D01*
X143343333Y-52874152D02*
X143295714Y-52969390D01*
X143295714Y-52969390D02*
X143248095Y-53017009D01*
X143248095Y-53017009D02*
X143152857Y-53064628D01*
X143152857Y-53064628D02*
X142771905Y-53064628D01*
X143676667Y-52540819D02*
X144295714Y-52540819D01*
X144295714Y-52540819D02*
X143962381Y-52921771D01*
X143962381Y-52921771D02*
X144105238Y-52921771D01*
X144105238Y-52921771D02*
X144200476Y-52969390D01*
X144200476Y-52969390D02*
X144248095Y-53017009D01*
X144248095Y-53017009D02*
X144295714Y-53112247D01*
X144295714Y-53112247D02*
X144295714Y-53350342D01*
X144295714Y-53350342D02*
X144248095Y-53445580D01*
X144248095Y-53445580D02*
X144200476Y-53493200D01*
X144200476Y-53493200D02*
X144105238Y-53540819D01*
X144105238Y-53540819D02*
X143819524Y-53540819D01*
X143819524Y-53540819D02*
X143724286Y-53493200D01*
X143724286Y-53493200D02*
X143676667Y-53445580D01*
X113117333Y-97239080D02*
X113069714Y-97286700D01*
X113069714Y-97286700D02*
X112926857Y-97334319D01*
X112926857Y-97334319D02*
X112831619Y-97334319D01*
X112831619Y-97334319D02*
X112688762Y-97286700D01*
X112688762Y-97286700D02*
X112593524Y-97191461D01*
X112593524Y-97191461D02*
X112545905Y-97096223D01*
X112545905Y-97096223D02*
X112498286Y-96905747D01*
X112498286Y-96905747D02*
X112498286Y-96762890D01*
X112498286Y-96762890D02*
X112545905Y-96572414D01*
X112545905Y-96572414D02*
X112593524Y-96477176D01*
X112593524Y-96477176D02*
X112688762Y-96381938D01*
X112688762Y-96381938D02*
X112831619Y-96334319D01*
X112831619Y-96334319D02*
X112926857Y-96334319D01*
X112926857Y-96334319D02*
X113069714Y-96381938D01*
X113069714Y-96381938D02*
X113117333Y-96429557D01*
X114069714Y-97334319D02*
X113498286Y-97334319D01*
X113784000Y-97334319D02*
X113784000Y-96334319D01*
X113784000Y-96334319D02*
X113688762Y-96477176D01*
X113688762Y-96477176D02*
X113593524Y-96572414D01*
X113593524Y-96572414D02*
X113498286Y-96620033D01*
X108418333Y-65129580D02*
X108370714Y-65177200D01*
X108370714Y-65177200D02*
X108227857Y-65224819D01*
X108227857Y-65224819D02*
X108132619Y-65224819D01*
X108132619Y-65224819D02*
X107989762Y-65177200D01*
X107989762Y-65177200D02*
X107894524Y-65081961D01*
X107894524Y-65081961D02*
X107846905Y-64986723D01*
X107846905Y-64986723D02*
X107799286Y-64796247D01*
X107799286Y-64796247D02*
X107799286Y-64653390D01*
X107799286Y-64653390D02*
X107846905Y-64462914D01*
X107846905Y-64462914D02*
X107894524Y-64367676D01*
X107894524Y-64367676D02*
X107989762Y-64272438D01*
X107989762Y-64272438D02*
X108132619Y-64224819D01*
X108132619Y-64224819D02*
X108227857Y-64224819D01*
X108227857Y-64224819D02*
X108370714Y-64272438D01*
X108370714Y-64272438D02*
X108418333Y-64320057D01*
X108799286Y-64320057D02*
X108846905Y-64272438D01*
X108846905Y-64272438D02*
X108942143Y-64224819D01*
X108942143Y-64224819D02*
X109180238Y-64224819D01*
X109180238Y-64224819D02*
X109275476Y-64272438D01*
X109275476Y-64272438D02*
X109323095Y-64320057D01*
X109323095Y-64320057D02*
X109370714Y-64415295D01*
X109370714Y-64415295D02*
X109370714Y-64510533D01*
X109370714Y-64510533D02*
X109323095Y-64653390D01*
X109323095Y-64653390D02*
X108751667Y-65224819D01*
X108751667Y-65224819D02*
X109370714Y-65224819D01*
X112545905Y-89894819D02*
X112545905Y-88894819D01*
X112545905Y-88894819D02*
X112784000Y-88894819D01*
X112784000Y-88894819D02*
X112926857Y-88942438D01*
X112926857Y-88942438D02*
X113022095Y-89037676D01*
X113022095Y-89037676D02*
X113069714Y-89132914D01*
X113069714Y-89132914D02*
X113117333Y-89323390D01*
X113117333Y-89323390D02*
X113117333Y-89466247D01*
X113117333Y-89466247D02*
X113069714Y-89656723D01*
X113069714Y-89656723D02*
X113022095Y-89751961D01*
X113022095Y-89751961D02*
X112926857Y-89847200D01*
X112926857Y-89847200D02*
X112784000Y-89894819D01*
X112784000Y-89894819D02*
X112545905Y-89894819D01*
X114069714Y-89894819D02*
X113498286Y-89894819D01*
X113784000Y-89894819D02*
X113784000Y-88894819D01*
X113784000Y-88894819D02*
X113688762Y-89037676D01*
X113688762Y-89037676D02*
X113593524Y-89132914D01*
X113593524Y-89132914D02*
X113498286Y-89180533D01*
X104036905Y-56334819D02*
X104036905Y-55334819D01*
X104036905Y-55334819D02*
X104275000Y-55334819D01*
X104275000Y-55334819D02*
X104417857Y-55382438D01*
X104417857Y-55382438D02*
X104513095Y-55477676D01*
X104513095Y-55477676D02*
X104560714Y-55572914D01*
X104560714Y-55572914D02*
X104608333Y-55763390D01*
X104608333Y-55763390D02*
X104608333Y-55906247D01*
X104608333Y-55906247D02*
X104560714Y-56096723D01*
X104560714Y-56096723D02*
X104513095Y-56191961D01*
X104513095Y-56191961D02*
X104417857Y-56287200D01*
X104417857Y-56287200D02*
X104275000Y-56334819D01*
X104275000Y-56334819D02*
X104036905Y-56334819D01*
X104941667Y-55334819D02*
X105560714Y-55334819D01*
X105560714Y-55334819D02*
X105227381Y-55715771D01*
X105227381Y-55715771D02*
X105370238Y-55715771D01*
X105370238Y-55715771D02*
X105465476Y-55763390D01*
X105465476Y-55763390D02*
X105513095Y-55811009D01*
X105513095Y-55811009D02*
X105560714Y-55906247D01*
X105560714Y-55906247D02*
X105560714Y-56144342D01*
X105560714Y-56144342D02*
X105513095Y-56239580D01*
X105513095Y-56239580D02*
X105465476Y-56287200D01*
X105465476Y-56287200D02*
X105370238Y-56334819D01*
X105370238Y-56334819D02*
X105084524Y-56334819D01*
X105084524Y-56334819D02*
X104989286Y-56287200D01*
X104989286Y-56287200D02*
X104941667Y-56239580D01*
X99996666Y-69529819D02*
X99996666Y-70244104D01*
X99996666Y-70244104D02*
X99949047Y-70386961D01*
X99949047Y-70386961D02*
X99853809Y-70482200D01*
X99853809Y-70482200D02*
X99710952Y-70529819D01*
X99710952Y-70529819D02*
X99615714Y-70529819D01*
X100996666Y-70529819D02*
X100425238Y-70529819D01*
X100710952Y-70529819D02*
X100710952Y-69529819D01*
X100710952Y-69529819D02*
X100615714Y-69672676D01*
X100615714Y-69672676D02*
X100520476Y-69767914D01*
X100520476Y-69767914D02*
X100425238Y-69815533D01*
X143597333Y-91894819D02*
X143264000Y-91418628D01*
X143025905Y-91894819D02*
X143025905Y-90894819D01*
X143025905Y-90894819D02*
X143406857Y-90894819D01*
X143406857Y-90894819D02*
X143502095Y-90942438D01*
X143502095Y-90942438D02*
X143549714Y-90990057D01*
X143549714Y-90990057D02*
X143597333Y-91085295D01*
X143597333Y-91085295D02*
X143597333Y-91228152D01*
X143597333Y-91228152D02*
X143549714Y-91323390D01*
X143549714Y-91323390D02*
X143502095Y-91371009D01*
X143502095Y-91371009D02*
X143406857Y-91418628D01*
X143406857Y-91418628D02*
X143025905Y-91418628D01*
X144549714Y-91894819D02*
X143978286Y-91894819D01*
X144264000Y-91894819D02*
X144264000Y-90894819D01*
X144264000Y-90894819D02*
X144168762Y-91037676D01*
X144168762Y-91037676D02*
X144073524Y-91132914D01*
X144073524Y-91132914D02*
X143978286Y-91180533D01*
X104036905Y-60144819D02*
X104036905Y-59144819D01*
X104036905Y-59144819D02*
X104275000Y-59144819D01*
X104275000Y-59144819D02*
X104417857Y-59192438D01*
X104417857Y-59192438D02*
X104513095Y-59287676D01*
X104513095Y-59287676D02*
X104560714Y-59382914D01*
X104560714Y-59382914D02*
X104608333Y-59573390D01*
X104608333Y-59573390D02*
X104608333Y-59716247D01*
X104608333Y-59716247D02*
X104560714Y-59906723D01*
X104560714Y-59906723D02*
X104513095Y-60001961D01*
X104513095Y-60001961D02*
X104417857Y-60097200D01*
X104417857Y-60097200D02*
X104275000Y-60144819D01*
X104275000Y-60144819D02*
X104036905Y-60144819D01*
X104989286Y-59240057D02*
X105036905Y-59192438D01*
X105036905Y-59192438D02*
X105132143Y-59144819D01*
X105132143Y-59144819D02*
X105370238Y-59144819D01*
X105370238Y-59144819D02*
X105465476Y-59192438D01*
X105465476Y-59192438D02*
X105513095Y-59240057D01*
X105513095Y-59240057D02*
X105560714Y-59335295D01*
X105560714Y-59335295D02*
X105560714Y-59430533D01*
X105560714Y-59430533D02*
X105513095Y-59573390D01*
X105513095Y-59573390D02*
X104941667Y-60144819D01*
X104941667Y-60144819D02*
X105560714Y-60144819D01*
D12*
X157500000Y-83500000D02*
X157500000Y-89000000D01*
X157500000Y-89000000D02*
X159500000Y-87000000D01*
X157500000Y-60750000D02*
X157500000Y-66250000D01*
X157500000Y-66250000D02*
X155500000Y-64250000D01*
X157500000Y-66250000D02*
X159500000Y-64250000D01*
X157500000Y-89000000D02*
X155500000Y-87000000D01*
D13*
X140207107Y-70000000D02*
G75*
G03*
X140207107Y-70000000I-707107J0D01*
G01*
X146207107Y-62500000D02*
G75*
G03*
X146207107Y-62500000I-707107J0D01*
G01*
D14*
X98325000Y-63126252D02*
X98325000Y-62603748D01*
X99795000Y-63126252D02*
X99795000Y-62603748D01*
D13*
X126515000Y-85500000D02*
G75*
G03*
X126515000Y-85500000I-707107J0D01*
G01*
X134722107Y-79500000D02*
G75*
G03*
X134722107Y-79500000I-707107J0D01*
G01*
D14*
X101500000Y-62637936D02*
X101500000Y-63092064D01*
X102970000Y-62637936D02*
X102970000Y-63092064D01*
X122432000Y-94408000D02*
X122432000Y-99648000D01*
X138172000Y-94408000D02*
X122432000Y-94408000D01*
X139022000Y-97028000D02*
X138172000Y-97028000D01*
X121582000Y-97028000D02*
X122432000Y-97028000D01*
X122432000Y-99648000D02*
X138172000Y-99648000D01*
X138172000Y-99648000D02*
X138172000Y-94408000D01*
X108323748Y-53440000D02*
X108846252Y-53440000D01*
X108323748Y-51970000D02*
X108846252Y-51970000D01*
X113565000Y-58917064D02*
X113565000Y-58462936D01*
X115035000Y-58917064D02*
X115035000Y-58462936D01*
X122432000Y-56054000D02*
X122432000Y-61294000D01*
X138172000Y-61294000D02*
X138172000Y-56054000D01*
X121582000Y-58674000D02*
X122432000Y-58674000D01*
X138172000Y-56054000D02*
X122432000Y-56054000D01*
X139022000Y-58674000D02*
X138172000Y-58674000D01*
X122432000Y-61294000D02*
X138172000Y-61294000D01*
X122432000Y-50466000D02*
X122432000Y-55706000D01*
X121582000Y-53086000D02*
X122432000Y-53086000D01*
X138172000Y-55706000D02*
X138172000Y-50466000D01*
X138172000Y-50466000D02*
X122432000Y-50466000D01*
X122432000Y-55706000D02*
X138172000Y-55706000D01*
X139022000Y-53086000D02*
X138172000Y-53086000D01*
X113022748Y-95477000D02*
X113545252Y-95477000D01*
X113022748Y-94007000D02*
X113545252Y-94007000D01*
X108323748Y-62130000D02*
X108846252Y-62130000D01*
X108323748Y-63600000D02*
X108846252Y-63600000D01*
X111034000Y-92440000D02*
X114934000Y-92440000D01*
X111034000Y-90440000D02*
X111034000Y-92440000D01*
X111034000Y-90440000D02*
X114934000Y-90440000D01*
X106335000Y-54880000D02*
X110235000Y-54880000D01*
X106335000Y-56880000D02*
X110235000Y-56880000D01*
X106335000Y-54880000D02*
X106335000Y-56880000D01*
X97730000Y-73675000D02*
X100330000Y-73675000D01*
X100330000Y-71075000D02*
X102930000Y-71075000D01*
X97730000Y-72405000D02*
X97730000Y-71075000D01*
X100330000Y-73675000D02*
X100330000Y-71075000D01*
X97730000Y-73675000D02*
X97730000Y-78815000D01*
X102930000Y-71075000D02*
X102930000Y-78815000D01*
X97730000Y-71075000D02*
X99060000Y-71075000D01*
X97730000Y-78815000D02*
X102930000Y-78815000D01*
X138172000Y-88820000D02*
X122432000Y-88820000D01*
X121582000Y-91440000D02*
X122432000Y-91440000D01*
X139022000Y-91440000D02*
X138172000Y-91440000D01*
X138172000Y-94060000D02*
X138172000Y-88820000D01*
X122432000Y-88820000D02*
X122432000Y-94060000D01*
X122432000Y-94060000D02*
X138172000Y-94060000D01*
X106335000Y-58690000D02*
X106335000Y-60690000D01*
X106335000Y-60690000D02*
X110235000Y-60690000D01*
X106335000Y-58690000D02*
X110235000Y-58690000D01*
%LPC*%
D15*
X151000000Y-62500000D03*
D16*
X151000000Y-65000000D03*
D15*
X151000000Y-87500000D03*
D16*
X151000000Y-85000000D03*
X139500000Y-67000000D03*
X139500000Y-83000000D03*
D17*
X151000000Y-96500000D03*
D18*
X144000000Y-84000000D03*
D17*
X151000000Y-53500000D03*
D19*
X99060000Y-63902500D03*
X99060000Y-61827500D03*
D17*
X120015000Y-85500000D03*
X120015000Y-64500000D03*
D16*
X134015000Y-83000000D03*
X134015000Y-67000000D03*
D20*
X127515000Y-65750000D03*
D21*
X102235000Y-61865000D03*
X102235000Y-63865000D03*
D22*
X140462000Y-97028000D03*
D23*
X120142000Y-97028000D03*
D24*
X107547500Y-52705000D03*
X109622500Y-52705000D03*
D25*
X114300000Y-59690000D03*
X114300000Y-57690000D03*
D22*
X140462000Y-58674000D03*
D23*
X120142000Y-58674000D03*
D26*
X160000000Y-55000000D03*
D22*
X140462000Y-53086000D03*
D23*
X120142000Y-53086000D03*
D24*
X112246500Y-94742000D03*
X114321500Y-94742000D03*
D26*
X100000000Y-95000000D03*
D24*
X107547500Y-62865000D03*
X109622500Y-62865000D03*
D27*
X111634000Y-91440000D03*
X114934000Y-91440000D03*
X106935000Y-55880000D03*
X110235000Y-55880000D03*
D28*
X99060000Y-72405000D03*
D29*
X101600000Y-72405000D03*
X99060000Y-74945000D03*
X101600000Y-74945000D03*
X99060000Y-77485000D03*
X101600000Y-77485000D03*
D22*
X140462000Y-91440000D03*
D23*
X120142000Y-91440000D03*
D26*
X100000000Y-55000000D03*
X160000000Y-95000000D03*
D27*
X106935000Y-59690000D03*
X110235000Y-59690000D03*
%LPD*%
M02*
