G04 #@! TF.GenerationSoftware,KiCad,Pcbnew,7.0.9-7.0.9~ubuntu20.04.1*
G04 #@! TF.CreationDate,2023-12-17T17:20:07+01:00*
G04 #@! TF.ProjectId,swr,7377722e-6b69-4636-9164-5f7063625858,1.0*
G04 #@! TF.SameCoordinates,Original*
G04 #@! TF.FileFunction,Profile,NP*
%FSLAX46Y46*%
G04 Gerber Fmt 4.6, Leading zero omitted, Abs format (unit mm)*
G04 Created by KiCad (PCBNEW 7.0.9-7.0.9~ubuntu20.04.1) date 2023-12-17 17:20:07*
%MOMM*%
%LPD*%
G01*
G04 APERTURE LIST*
G04 #@! TA.AperFunction,Profile*
%ADD10C,0.100000*%
G04 #@! TD*
G04 #@! TA.AperFunction,Profile*
%ADD11C,0.120000*%
G04 #@! TD*
G04 APERTURE END LIST*
D10*
X165000000Y-99500000D02*
X165000000Y-50500000D01*
X95500000Y-100000000D02*
X164500000Y-100000000D01*
X95000000Y-50500000D02*
X95000000Y-99500000D01*
X164500000Y-100000000D02*
G75*
G03*
X165000000Y-99500000I0J500000D01*
G01*
X95000000Y-99500000D02*
G75*
G03*
X95500000Y-100000000I500000J0D01*
G01*
X165000000Y-50500000D02*
G75*
G03*
X164500000Y-50000000I-500000J0D01*
G01*
X95500000Y-50000000D02*
G75*
G03*
X95000000Y-50500000I0J-500000D01*
G01*
X164500000Y-50000000D02*
X95500000Y-50000000D01*
D11*
X161000000Y-68500000D02*
X161000000Y-81500000D01*
X141000000Y-81500000D02*
X141000000Y-68500000D01*
X160000000Y-82500000D02*
X142000000Y-82500000D01*
X142000000Y-67500000D02*
X160000000Y-67500000D01*
X160000000Y-82500000D02*
G75*
G03*
X161000000Y-81500000I1J999999D01*
G01*
X161000000Y-68500000D02*
G75*
G03*
X160000000Y-67500000I-999999J1D01*
G01*
X141000000Y-81500000D02*
G75*
G03*
X142000000Y-82500000I1000000J0D01*
G01*
X142000000Y-67500000D02*
G75*
G03*
X141000000Y-68500000I0J-1000000D01*
G01*
X131515000Y-82500000D02*
X108515000Y-82500000D01*
X107515000Y-81500000D02*
X107515000Y-68500000D01*
X108515000Y-67500000D02*
X131515000Y-67500000D01*
X132515000Y-68500000D02*
X132515000Y-81500000D01*
X132515000Y-68500000D02*
G75*
G03*
X131515000Y-67500000I-1000000J0D01*
G01*
X131515000Y-82500000D02*
G75*
G03*
X132515000Y-81500000I0J1000000D01*
G01*
X107515000Y-81500000D02*
G75*
G03*
X108515000Y-82500000I999999J-1D01*
G01*
X108515000Y-67500000D02*
G75*
G03*
X107515000Y-68500000I-1J-999999D01*
G01*
M02*
