%TF.GenerationSoftware,KiCad,Pcbnew,7.0.9-7.0.9~ubuntu20.04.1*%
%TF.CreationDate,2023-12-17T17:20:16+01:00*%
%TF.ProjectId,swr,7377722e-6b69-4636-9164-5f7063625858,1.0*%
%TF.SameCoordinates,Original*%
%TF.FileFunction,Drillmap*%
%TF.FilePolarity,Positive*%
%FSLAX45Y45*%
G04 Gerber Fmt 4.5, Leading zero omitted, Abs format (unit mm)*
G04 Created by KiCad (PCBNEW 7.0.9-7.0.9~ubuntu20.04.1) date 2023-12-17 17:20:16*
%MOMM*%
%LPD*%
G01*
G04 APERTURE LIST*
%ADD10C,0.100000*%
%ADD11C,0.200000*%
G04 APERTURE END LIST*
D10*
X16500000Y-9950000D02*
X16500000Y-5050000D01*
X9550000Y-10000000D02*
X16450000Y-10000000D01*
X9500000Y-5050000D02*
X9500000Y-9950000D01*
X16450000Y-10000000D02*
G75*
G03*
X16500000Y-9950000I0J50000D01*
G01*
X9500000Y-9950000D02*
G75*
G03*
X9550000Y-10000000I50000J0D01*
G01*
X16500000Y-5050000D02*
G75*
G03*
X16450000Y-5000000I-50000J0D01*
G01*
X9550000Y-5000000D02*
G75*
G03*
X9500000Y-5050000I0J-50000D01*
G01*
X16450000Y-5000000D02*
X9550000Y-5000000D01*
D11*
X9755777Y-10316484D02*
X9755777Y-10116484D01*
X9755777Y-10116484D02*
X9803396Y-10116484D01*
X9803396Y-10116484D02*
X9831967Y-10126008D01*
X9831967Y-10126008D02*
X9851015Y-10145055D01*
X9851015Y-10145055D02*
X9860539Y-10164103D01*
X9860539Y-10164103D02*
X9870063Y-10202198D01*
X9870063Y-10202198D02*
X9870063Y-10230770D01*
X9870063Y-10230770D02*
X9860539Y-10268865D01*
X9860539Y-10268865D02*
X9851015Y-10287912D01*
X9851015Y-10287912D02*
X9831967Y-10306960D01*
X9831967Y-10306960D02*
X9803396Y-10316484D01*
X9803396Y-10316484D02*
X9755777Y-10316484D01*
X9955777Y-10316484D02*
X9955777Y-10183150D01*
X9955777Y-10221246D02*
X9965301Y-10202198D01*
X9965301Y-10202198D02*
X9974824Y-10192674D01*
X9974824Y-10192674D02*
X9993872Y-10183150D01*
X9993872Y-10183150D02*
X10012920Y-10183150D01*
X10079586Y-10316484D02*
X10079586Y-10183150D01*
X10079586Y-10116484D02*
X10070063Y-10126008D01*
X10070063Y-10126008D02*
X10079586Y-10135531D01*
X10079586Y-10135531D02*
X10089110Y-10126008D01*
X10089110Y-10126008D02*
X10079586Y-10116484D01*
X10079586Y-10116484D02*
X10079586Y-10135531D01*
X10203396Y-10316484D02*
X10184348Y-10306960D01*
X10184348Y-10306960D02*
X10174824Y-10287912D01*
X10174824Y-10287912D02*
X10174824Y-10116484D01*
X10308158Y-10316484D02*
X10289110Y-10306960D01*
X10289110Y-10306960D02*
X10279586Y-10287912D01*
X10279586Y-10287912D02*
X10279586Y-10116484D01*
X10536729Y-10316484D02*
X10536729Y-10116484D01*
X10536729Y-10116484D02*
X10603396Y-10259341D01*
X10603396Y-10259341D02*
X10670063Y-10116484D01*
X10670063Y-10116484D02*
X10670063Y-10316484D01*
X10851015Y-10316484D02*
X10851015Y-10211722D01*
X10851015Y-10211722D02*
X10841491Y-10192674D01*
X10841491Y-10192674D02*
X10822444Y-10183150D01*
X10822444Y-10183150D02*
X10784348Y-10183150D01*
X10784348Y-10183150D02*
X10765301Y-10192674D01*
X10851015Y-10306960D02*
X10831967Y-10316484D01*
X10831967Y-10316484D02*
X10784348Y-10316484D01*
X10784348Y-10316484D02*
X10765301Y-10306960D01*
X10765301Y-10306960D02*
X10755777Y-10287912D01*
X10755777Y-10287912D02*
X10755777Y-10268865D01*
X10755777Y-10268865D02*
X10765301Y-10249817D01*
X10765301Y-10249817D02*
X10784348Y-10240293D01*
X10784348Y-10240293D02*
X10831967Y-10240293D01*
X10831967Y-10240293D02*
X10851015Y-10230770D01*
X10946253Y-10183150D02*
X10946253Y-10383150D01*
X10946253Y-10192674D02*
X10965301Y-10183150D01*
X10965301Y-10183150D02*
X11003396Y-10183150D01*
X11003396Y-10183150D02*
X11022444Y-10192674D01*
X11022444Y-10192674D02*
X11031967Y-10202198D01*
X11031967Y-10202198D02*
X11041491Y-10221246D01*
X11041491Y-10221246D02*
X11041491Y-10278389D01*
X11041491Y-10278389D02*
X11031967Y-10297436D01*
X11031967Y-10297436D02*
X11022444Y-10306960D01*
X11022444Y-10306960D02*
X11003396Y-10316484D01*
X11003396Y-10316484D02*
X10965301Y-10316484D01*
X10965301Y-10316484D02*
X10946253Y-10306960D01*
X11127205Y-10297436D02*
X11136729Y-10306960D01*
X11136729Y-10306960D02*
X11127205Y-10316484D01*
X11127205Y-10316484D02*
X11117682Y-10306960D01*
X11117682Y-10306960D02*
X11127205Y-10297436D01*
X11127205Y-10297436D02*
X11127205Y-10316484D01*
X11127205Y-10192674D02*
X11136729Y-10202198D01*
X11136729Y-10202198D02*
X11127205Y-10211722D01*
X11127205Y-10211722D02*
X11117682Y-10202198D01*
X11117682Y-10202198D02*
X11127205Y-10192674D01*
X11127205Y-10192674D02*
X11127205Y-10211722D01*
M02*
