M48
; DRILL file {KiCad 7.0.9-7.0.9~ubuntu20.04.1} date ned 17 dec 2023 17:20:14
; FORMAT={-:-/ absolute / metric / decimal}
; #@! TF.CreationDate,2023-12-17T17:20:14+01:00
; #@! TF.GenerationSoftware,Kicad,Pcbnew,7.0.9-7.0.9~ubuntu20.04.1
; #@! TF.FileFunction,Plated,1,2,PTH
FMAT,2
METRIC
; #@! TA.AperFunction,Plated,PTH,ViaDrill
T1C0.400
; #@! TA.AperFunction,Plated,PTH,ComponentDrill
T2C1.000
; #@! TA.AperFunction,Plated,PTH,ComponentDrill
T3C1.200
; #@! TA.AperFunction,Plated,PTH,ComponentDrill
T4C3.200
%
G90
G05
T1
X99.06Y-59.69
X106.299Y-67.945
X106.299Y-69.215
X106.299Y-70.485
X106.299Y-71.755
X106.299Y-73.025
X106.299Y-74.295
X106.299Y-75.565
X106.299Y-76.835
X106.299Y-78.105
X106.299Y-79.375
X106.299Y-80.645
X106.299Y-81.915
X106.299Y-83.185
X106.807Y-66.675
X107.315Y-83.693
X107.95Y-66.294
X108.585Y-83.693
X109.22Y-66.294
X109.855Y-83.693
X110.49Y-66.294
X111.125Y-83.693
X111.76Y-52.705
X111.76Y-62.865
X111.76Y-66.294
X112.395Y-83.693
X113.03Y-66.294
X113.665Y-83.693
X114.3Y-66.294
X114.935Y-83.693
X116.205Y-94.615
X124.968Y-65.786
X125.095Y-83.693
X126.111Y-65.786
X126.365Y-83.693
X127.515Y-65.75
X127.635Y-83.693
X128.905Y-83.693
X128.941Y-65.75
X130.175Y-83.693
X130.338Y-65.75
X131.318Y-83.693
X131.862Y-65.75
X133.731Y-69.215
X133.731Y-70.485
X133.731Y-71.755
X133.731Y-73.025
X133.731Y-74.295
X133.731Y-75.565
X133.731Y-76.835
X133.731Y-78.105
X133.731Y-79.375
X139.7Y-69.215
X139.7Y-70.485
X139.7Y-71.755
X139.7Y-73.025
X139.7Y-74.295
X139.7Y-75.565
X139.7Y-76.835
X139.7Y-78.105
X139.7Y-79.375
X139.7Y-80.645
X141.552Y-84.0
X142.24Y-50.927
X142.24Y-66.167
X142.24Y-99.06
X142.822Y-84.0
X143.51Y-50.927
X143.51Y-66.167
X143.51Y-99.06
X144.0Y-84.0
X144.78Y-50.927
X144.78Y-66.167
X144.78Y-99.06
X145.466Y-83.998
X146.05Y-50.927
X146.05Y-52.197
X146.05Y-53.467
X146.05Y-54.737
X146.05Y-56.007
X146.05Y-57.277
X146.05Y-58.547
X146.05Y-59.817
X146.05Y-61.087
X146.05Y-62.357
X146.05Y-63.627
X146.05Y-64.897
X146.05Y-66.167
X146.05Y-90.17
X146.05Y-91.44
X146.05Y-92.71
X146.05Y-93.98
X146.05Y-95.25
X146.05Y-96.52
X146.05Y-97.79
X146.05Y-99.06
X147.32Y-50.927
X147.32Y-52.197
X147.32Y-53.467
X147.32Y-54.737
X147.32Y-56.007
X147.32Y-57.277
X147.32Y-92.71
X147.32Y-93.98
X147.32Y-95.25
X147.32Y-96.52
X147.32Y-97.79
X147.32Y-99.06
X148.59Y-50.927
X148.59Y-52.197
X148.59Y-53.467
X148.59Y-54.737
X148.59Y-56.007
X148.59Y-93.98
X148.59Y-95.25
X148.59Y-96.52
X148.59Y-97.79
X148.59Y-99.06
X149.86Y-50.927
X149.86Y-52.197
X149.86Y-53.467
X149.86Y-54.737
X149.86Y-56.007
X149.86Y-93.98
X149.86Y-95.25
X149.86Y-96.52
X149.86Y-97.79
X149.86Y-99.06
X151.13Y-50.927
X151.13Y-52.197
X151.13Y-53.467
X151.13Y-54.737
X151.13Y-94.031
X151.13Y-95.25
X151.13Y-96.52
X151.13Y-97.79
X151.13Y-99.06
X151.131Y-56.002
X152.4Y-50.927
X152.4Y-52.197
X152.4Y-53.467
X152.4Y-54.737
X152.4Y-56.007
X152.4Y-93.98
X152.4Y-95.25
X152.4Y-96.52
X152.4Y-97.79
X152.4Y-99.06
X153.67Y-50.927
X153.67Y-52.197
X153.67Y-53.467
X153.67Y-54.737
X153.67Y-56.007
X153.67Y-93.98
X153.67Y-95.25
X153.67Y-96.52
X153.67Y-97.79
X153.67Y-99.06
X154.686Y-92.71
X154.94Y-50.927
X154.94Y-52.197
X154.94Y-53.467
X154.94Y-54.737
X154.94Y-56.007
X154.94Y-57.277
X154.94Y-93.98
X154.94Y-95.25
X154.94Y-96.52
X154.94Y-97.79
X154.94Y-99.06
X155.956Y-50.927
X155.956Y-52.197
X155.956Y-53.467
X155.956Y-54.737
X155.956Y-56.007
X155.956Y-57.277
X155.956Y-58.547
X155.956Y-59.817
X155.956Y-61.087
X155.956Y-62.357
X155.956Y-63.627
X155.956Y-64.897
X155.956Y-66.167
X155.956Y-83.82
X155.956Y-85.09
X155.956Y-86.36
X155.956Y-87.63
X155.956Y-88.9
X155.956Y-90.17
X155.956Y-91.44
X155.956Y-92.71
X155.956Y-93.98
X155.956Y-95.25
X155.956Y-96.52
X155.956Y-97.79
X155.956Y-99.06
X157.099Y-50.927
X157.099Y-99.06
X157.226Y-66.167
X157.226Y-83.82
X158.242Y-99.06
X158.369Y-50.927
X158.496Y-66.167
X158.496Y-83.82
X159.385Y-99.06
X159.639Y-50.927
X159.766Y-66.167
X159.766Y-83.82
X161.036Y-83.566
X161.163Y-66.421
X162.052Y-67.31
X162.052Y-82.55
X162.179Y-68.58
X162.179Y-69.85
X162.179Y-71.12
X162.179Y-72.39
X162.179Y-73.66
X162.179Y-74.93
X162.179Y-76.2
X162.179Y-77.47
X162.179Y-78.74
X162.179Y-80.01
X162.179Y-81.28
T2
X99.06Y-72.405
X99.06Y-74.945
X99.06Y-77.485
X101.6Y-72.405
X101.6Y-74.945
X101.6Y-77.485
X134.015Y-67.0
X134.015Y-83.0
X139.5Y-67.0
X139.5Y-83.0
X151.0Y-65.0
X151.0Y-85.0
T3
X120.142Y-53.086
X120.142Y-58.674
X120.142Y-91.44
X120.142Y-97.028
X140.462Y-53.086
X140.462Y-58.674
X140.462Y-91.44
X140.462Y-97.028
T4
X100.0Y-55.0
X100.0Y-95.0
X160.0Y-55.0
X160.0Y-95.0
T0
M30
